<svg width="30" height="29" viewBox="0 0 30 29" fill="none" xmlns="http://www.w3.org/2000/svg">
<path d="M23.3804 1.58899H6.43017C4.08984 1.58899 2.19263 3.4862 2.19263 5.82653V22.7768C2.19263 25.1171 4.08984 27.0143 6.43017 27.0143H23.3804C25.7207 27.0143 27.6179 25.1171 27.6179 22.7768V5.82653C27.6179 3.4862 25.7207 1.58899 23.3804 1.58899Z" fill="#333333"/>
<path d="M11.1736 8.54126C11.7218 8.54126 12.2222 8.59008 12.6748 8.68669C13.1273 8.78331 13.5138 8.94196 13.8362 9.16265C14.1586 9.38335 14.4088 9.67625 14.5867 10.0424C14.7647 10.4085 14.8532 10.86 14.8532 11.398C14.8532 11.9788 14.721 12.4629 14.4576 12.8503C14.1942 13.2378 13.8036 13.5551 13.288 13.8023C13.9979 14.0067 14.5278 14.3647 14.8776 14.8752C15.2275 15.3858 15.4024 16.0021 15.4024 16.7231C15.4024 17.3038 15.2895 17.8073 15.0637 18.2324C14.8379 18.6575 14.5339 19.0043 14.1515 19.2728C13.7691 19.5423 13.3338 19.7406 12.8446 19.8698C12.3524 19.9989 11.8449 20.064 11.3364 20.063H5.75195V8.54126H11.1736ZM10.8513 13.2043C11.3028 13.2043 11.674 13.0965 11.9649 12.8819C12.2557 12.6663 12.4012 12.3174 12.4002 11.8333C12.4002 11.5648 12.3513 11.3441 12.2547 11.1723C12.1581 11.0004 12.029 10.8651 11.8672 10.7685C11.7055 10.6719 11.5204 10.6048 11.3109 10.5671C11.0953 10.5295 10.8767 10.5102 10.657 10.5112H8.28635V13.2063L10.8513 13.2043ZM10.9967 18.093C11.2357 18.0941 11.4737 18.0696 11.7066 18.0208C11.9323 17.972 12.1317 17.8917 12.3035 17.7788C12.4754 17.6659 12.6127 17.5123 12.7154 17.3191C12.8171 17.1259 12.869 16.8777 12.869 16.5767C12.869 15.9858 12.7022 15.5627 12.3686 15.3105C12.0351 15.0573 11.5937 14.9311 11.0455 14.9311H8.28635V18.0941L10.9967 18.093ZM18.5897 17.851C18.9334 18.1846 19.4287 18.3514 20.0745 18.3514C20.5373 18.3514 20.9349 18.2354 21.2685 18.0046C21.6021 17.7737 21.8065 17.5286 21.8818 17.2703H23.8985C23.5761 18.271 23.0808 18.986 22.4137 19.4162C21.7465 19.8464 20.94 20.062 19.9932 20.062C19.3372 20.062 18.7453 19.9572 18.2185 19.7477C17.6917 19.5382 17.2452 19.2392 16.8791 18.8517C16.513 18.4642 16.2302 18.0025 16.0319 17.4645C15.8336 16.9265 15.7339 16.3346 15.7339 15.6898C15.7339 15.0664 15.8356 14.4857 16.04 13.9477C16.2445 13.4097 16.5353 12.9449 16.9116 12.5524C17.2879 12.1598 17.7374 11.8506 18.2592 11.6248C18.7809 11.3991 19.3596 11.2862 19.9942 11.2862C20.7041 11.2862 21.3224 11.4235 21.8502 11.6981C22.3771 11.9727 22.8103 12.3408 23.149 12.8036C23.4876 13.2663 23.7327 13.7931 23.8832 14.385C24.0338 14.9769 24.0877 15.5953 24.045 16.2411H18.0263C18.0578 16.9804 18.2459 17.5184 18.5897 17.851ZM21.18 13.4626C20.9054 13.1615 20.4885 13.011 19.9291 13.011C19.563 13.011 19.2589 13.0731 19.0179 13.1961C18.7758 13.3202 18.5826 13.4728 18.4371 13.6558C18.2917 13.8389 18.19 14.0321 18.131 14.2365C18.072 14.4409 18.0364 14.624 18.0263 14.7847H21.7536C21.6448 14.205 21.4536 13.7636 21.18 13.4626ZM17.6337 9.12604H22.2906V10.4176H17.6337V9.12604Z" fill="white"/>
</svg>
