<svg width="32" height="29" viewBox="0 0 32 29" fill="none" xmlns="http://www.w3.org/2000/svg">
<g clip-path="url(#clip0_148_8517)">
<path d="M29.6955 23.5712C29.2404 23.5756 28.8055 23.76 28.486 24.0842C28.1665 24.4083 27.9884 24.8458 27.9905 25.301C27.9927 25.7561 28.1751 26.1919 28.4977 26.513C28.8203 26.8341 29.257 27.0143 29.7121 27.0143C30.1673 27.0143 30.6039 26.8341 30.9265 26.513C31.2491 26.1919 31.4315 25.7561 31.4337 25.301C31.4359 24.8458 31.2577 24.4083 30.9382 24.0842C30.6187 23.76 30.1838 23.5756 29.7287 23.5712H29.6955ZM29.6955 26.8172C29.397 26.8222 29.1037 26.7385 28.8527 26.5768C28.6017 26.4151 28.4044 26.1825 28.2855 25.9086C28.1667 25.6347 28.1318 25.3317 28.1851 25.038C28.2385 24.7442 28.3778 24.4729 28.5853 24.2583C28.7929 24.0437 29.0595 23.8954 29.3513 23.8323C29.6431 23.7692 29.9471 23.794 30.2248 23.9037C30.5025 24.0133 30.7415 24.2029 30.9115 24.4483C31.0815 24.6938 31.1748 24.9841 31.1798 25.2826V25.308C31.1882 25.6996 31.0407 26.0785 30.7697 26.3614C30.4987 26.6443 30.1265 26.8079 29.7349 26.8164H29.6959M23.087 23.1009H19.3461V17.2425C19.3461 15.8455 19.3212 14.0471 17.4005 14.0471C15.4521 14.0471 15.154 15.5692 15.154 17.1408V23.1005H11.4131V11.0532H15.0043V12.6996H15.0546C15.414 12.0851 15.9334 11.5796 16.5573 11.2369C17.1813 10.8942 17.8866 10.7272 18.598 10.7536C22.3895 10.7536 23.0886 13.2475 23.0886 16.4919L23.087 23.1009ZM7.19214 9.40644C6.76277 9.40654 6.34303 9.27929 5.98599 9.0408C5.62892 8.80234 5.35064 8.46332 5.18624 8.06669C5.02186 7.67002 4.9788 7.23357 5.06248 6.81243C5.14619 6.39129 5.35287 6.00444 5.65642 5.7008C5.95996 5.39713 6.34674 5.19029 6.76785 5.10645C7.18893 5.02261 7.62545 5.06555 8.02214 5.22977C8.41884 5.39401 8.75795 5.6722 8.99654 6.02917C9.23515 6.38611 9.36254 6.80582 9.36263 7.23519C9.36266 7.52027 9.30657 7.80255 9.19753 8.06596C9.08848 8.32936 8.92862 8.56871 8.72706 8.77033C8.5255 8.97196 8.28622 9.13191 8.02288 9.24105C7.7595 9.35019 7.47722 9.40641 7.19214 9.40644ZM9.06258 23.1009H5.31778V11.0532H9.06258V23.1009ZM24.952 1.59071H3.43799C2.94968 1.5852 2.47916 1.77378 2.12982 2.115C1.78049 2.45623 1.58091 2.9222 1.57495 3.41049V25.0138C1.58071 25.5023 1.78016 25.9686 2.12948 26.3102C2.47881 26.6518 2.94944 26.8407 3.43799 26.8355H24.952C25.4415 26.8417 25.9135 26.6533 26.2642 26.3117C26.6149 25.9701 26.8157 25.5033 26.8224 25.0138V3.40893C26.8155 2.91967 26.6146 2.45318 26.2638 2.11195C25.9131 1.77073 25.4413 1.5827 24.952 1.58915M29.9687 25.4019C30.0328 25.4025 30.0963 25.39 30.1553 25.3651C30.2143 25.3402 30.2676 25.3034 30.3118 25.257C30.356 25.2106 30.3902 25.1557 30.4123 25.0955C30.4344 25.0354 30.4439 24.9713 30.4402 24.9074C30.4402 24.5567 30.2286 24.3891 29.7945 24.3891H29.0931V26.2253H29.3569V25.4249H29.6811L29.6885 25.4346L30.1916 26.2253H30.4737L29.9325 25.407L29.9687 25.4019ZM29.6636 25.218H29.3577V24.5972H29.7454C29.9457 24.5972 30.174 24.6299 30.174 24.8922C30.174 25.1938 29.943 25.218 29.662 25.218" fill="#333333"/>
</g>
<defs>
<clipPath id="clip0_148_8517">
<rect width="31.4638" height="28.6035" fill="white" transform="translate(0.207031)"/>
</clipPath>
</defs>
</svg>
