<svg width="29" height="29" viewBox="0 0 29 29" fill="none" xmlns="http://www.w3.org/2000/svg">
<path d="M15.7105 14.324C15.7105 17.9409 12.7983 20.873 9.20607 20.873C5.61385 20.873 2.70142 17.9409 2.70142 14.324C2.70142 10.707 5.61363 7.77466 9.20607 7.77466C12.7985 7.77466 15.7105 10.707 15.7105 14.324Z" fill="#333333"/>
<path d="M22.8462 14.3239C22.8462 17.7285 21.3901 20.4895 19.5939 20.4895C17.7977 20.4895 16.3416 17.7285 16.3416 14.3239C16.3416 10.9193 17.7974 8.1582 19.5937 8.1582C21.3899 8.1582 22.8462 10.9184 22.8462 14.3239Z" fill="#333333"/>
<path d="M24.6207 19.8474C25.2525 19.8474 25.7645 17.3736 25.7645 14.3239C25.7645 11.2733 25.2523 8.80042 24.6207 8.80042C23.9891 8.80042 23.4771 11.2735 23.4771 14.3239C23.4771 17.3742 23.9889 19.8474 24.6207 19.8474Z" fill="#333333"/>
</svg>
